TRON Legacy 2010 TS XViD - IMAGiNE

screans 
http://bayimg.com/KaBEfaADj
http://bayimg.com/KAbEgaADJ

Ripper: IMAGiNE IMDB Rating.......:7.7/10
Video Codec: XVID Release Date......:21/12/10
Audio Codec.......:MP3 Theatre Date......:17/12/10
Audio Bitrate.....:128 Runtime.......:1h 58mn
Subtitles.........:NIL Language..........:ENGLISH
Resolution...... 720 x 304


Video
ID: 0
Format: MPEG-4 Visual
Format profile: Advanced Simple@L5
Format settings, BVOP: Yes
Format settings, QPel: No
Format settings, GMC: No warppoints
Format settings, Matrix: Default (H.263)
Muxing mode: Packed bitstream
Codec ID: XVID
Codec ID/Hint: XviD
Duration: 1h 58mn
Bit rate: 1 513 Kbps
Width: 720 pixels
Height: 304 pixels
Display aspect ratio: 2.35:1
Frame rate: 23.976 fps
Color space: YUV
Chroma subsampling: 4:2:0
Bit depth: 8 bits
Scan type: Progressive
Bits/(Pixel*Frame): 0.288
Stream size: 1.25 GiB (92%)
Writing library: XviD 1.1.2 (UTC 2006-11-01)

Audio
ID: 1
Format: MPEG Audio
Format version: Version 1
Format profile: Layer 3
Codec ID: 55
Codec ID/Hint: MP3
Duration: 1h 58mn
Bit rate mode: Constant
Bit rate: 128 Kbps
Channel(s): 2 channels
Sampling rate: 44.1 KHz
Stream size: 108 MiB (8%)
Alignment: Split accross interleaves
Interleave, duration: 42 ms (1.00 video frame)
Interleave, preload duration: 500 ms SOURCES: